# xmcd
# Copyright (C) 1995-1998 Ti Kan
#
# Track frame offsets:
#       150
#       17456
#       35153
#       50709
#       70005
#       87828
#       103834
#       120274
#       138436
#       158124
#       176927
#       198575
#       224054
#       241629
#
# Disc length: 3481 seconds
#
# Revision: 0
# Processed by: cddbd v1.5.2PL0 Copyright (c) Steve Scherf et al.
# Submitted via: CD-Import v1.0
#
DISCID=c60d970e
DTITLE=Skywards - Not In Vain
DYEAR=08
DGENRE=
TTITLE0=Remption
TTITLE1=Will You
TTITLE2=Scorn
TTITLE3=Sleep Of Death
TTITLE4=Not In Vain
TTITLE5=Mystify Yourself
TTITLE6=Irrefutable
TTITLE7=Assimilation
TTITLE8=The Optimist
TTITLE9=No One Knows
TTITLE10=17th Of October
TTITLE11=Lux
TTITLE12=These Days
TTITLE13=You And Me
EXTD=
EXTT0=
EXTT1=
EXTT2=
EXTT3=
EXTT4=
EXTT5=
EXTT6=
EXTT7=
EXTT8=
EXTT9=
EXTT10=
EXTT11=
EXTT12=
EXTT13=
PLAYORDER=
